<?xml version="1.0" encoding="UTF-8"?>
<svg xmlns="http://www.w3.org/2000/svg" height="148" width="148" class="pyqrcode"><path transform="scale(4)" stroke="#000" class="pyqrline" d="M4 4.5h7m5 0h1m1 0h1m2 0h2m1 0h1m1 0h7m-29 1h1m5 0h1m2 0h1m3 0h3m1 0h1m1 0h1m2 0h1m5 0h1m-29 1h1m1 0h3m1 0h1m1 0h1m1 0h1m2 0h2m1 0h1m2 0h2m1 0h1m1 0h3m1 0h1m-29 1h1m1 0h3m1 0h1m1 0h2m1 0h4m2 0h3m2 0h1m1 0h3m1 0h1m-29 1h1m1 0h3m1 0h1m2 0h1m2 0h1m2 0h2m1 0h2m2 0h1m1 0h3m1 0h1m-29 1h1m5 0h1m3 0h4m6 0h1m1 0h1m5 0h1m-29 1h7m1 0h1m1 0h1m1 0h1m1 0h1m1 0h1m1 0h1m1 0h1m1 0h7m-19 1h1m1 0h1m1 0h1m1 0h1m-14 1h2m1 0h2m3 0h2m1 0h1m3 0h2m5 0h2m-25 1h4m1 0h1m3 0h3m1 0h2m1 0h2m3 0h3m1 0h1m-27 1h6m1 0h5m1 0h1m1 0h2m3 0h2m1 0h2m-26 1h3m1 0h2m1 0h1m6 0h1m1 0h2m1 0h2m3 0h2m2 0h1m-28 1h3m2 0h4m2 0h1m1 0h1m2 0h2m2 0h2m4 0h1m-27 1h1m1 0h1m10 0h2m6 0h1m1 0h1m1 0h1m1 0h1m-29 1h2m3 0h2m1 0h1m1 0h4m5 0h5m1 0h1m2 0h1m-27 1h1m1 0h1m2 0h2m3 0h1m2 0h5m4 0h3m1 0h1m-29 1h1m1 0h2m1 0h4m1 0h1m1 0h1m1 0h1m5 0h2m3 0h1m1 0h1m-28 1h3m1 0h2m5 0h3m1 0h3m1 0h2m3 0h1m-25 1h4m2 0h1m1 0h1m1 0h1m1 0h2m3 0h3m3 0h3m2 0h1m-29 1h2m1 0h3m1 0h2m3 0h1m5 0h1m1 0h3m3 0h1m-27 1h2m1 0h1m2 0h6m1 0h1m2 0h1m1 0h10m-20 1h1m1 0h3m3 0h5m3 0h4m-28 1h7m1 0h1m1 0h1m1 0h2m1 0h1m3 0h2m1 0h1m1 0h1m1 0h1m-27 1h1m5 0h1m2 0h2m2 0h1m2 0h2m1 0h2m3 0h2m-26 1h1m1 0h3m1 0h1m1 0h2m1 0h2m4 0h8m-25 1h1m1 0h3m1 0h1m1 0h1m3 0h3m1 0h1m1 0h1m4 0h1m3 0h1m-28 1h1m1 0h3m1 0h1m3 0h3m4 0h1m2 0h2m1 0h6m-29 1h1m5 0h1m2 0h1m2 0h3m1 0h3m2 0h1m2 0h3m1 0h1m-29 1h7m2 0h5m1 0h1m1 0h1m1 0h6"/></svg>
